<?xml version="1.0" encoding="UTF-8"?>
<svg version="1.1" xmlns="http://www.w3.org/2000/svg" width="500" height="500">
<path d="M0 0 C1.6266848 0.28211877 3.25132896 0.57602375 4.875 0.875 C5.77992188 1.03742188 6.68484375 1.19984375 7.6171875 1.3671875 C10 2 10 2 12 4 C12.17280395 6.82929861 12.23210076 9.54871997 12.1875 12.375 C12.18685547 13.14328125 12.18621094 13.9115625 12.18554688 14.703125 C12.15735405 18.32433699 11.98182002 21.49482908 11 25 C15.85654589 24.2861202 17.94934013 21.27200425 21.02734375 17.69921875 C24.12192645 13.46484915 26.10699526 8.86902662 28 4 C32.8607826 6.03571237 34.77237645 9.3707198 37 14 C37.75 17 37.75 17 37 20 C32.94008763 26.23441652 27.29786053 30.2298522 21 34 C23.71059415 41.27580535 27.7734668 45.3301001 34 50 C34.33 50 34.66 50 35 50 C34.7525 48.9790625 34.7525 48.9790625 34.5 47.9375 C33.19156769 40.2504602 34.36310491 33.87979322 38 27 C41.89971987 22.51692039 46.57793549 18.43859545 52.62109375 17.6640625 C60.29497074 17.5576287 60.29497074 17.5576287 64.1875 20 C64.785625 20.66 65.38375 21.32 66 22 C66.33 20.68 66.66 19.36 67 18 C74.95979899 18.49323541 74.95979899 18.49323541 78.4375 20.1875 C80.50499613 22.58579551 81.1914529 24.96794838 82 28 C82.65355469 27.29423828 82.65355469 27.29423828 83.3203125 26.57421875 C88.63906381 21.01370601 92.64898665 17.90149923 100.5625 17.5625 C104.45393609 17.65262863 105.79795754 17.87322826 109.1875 20 C109.785625 20.66 110.38375 21.32 111 22 C111.33 20.68 111.66 19.36 112 18 C117.95950661 18.25967349 121.49382527 18.76692677 126 23 C126.66 23 127.32 23 128 23 C128 21.35 128 19.7 128 18 C136.8590604 18.73825503 136.8590604 18.73825503 140 22 C140.69105972 23.32085528 141.36124971 24.65307005 142 26 C142.79664063 25.38511719 142.79664063 25.38511719 143.609375 24.7578125 C144.31578125 24.21898437 145.0221875 23.68015625 145.75 23.125 C146.44609375 22.59132812 147.1421875 22.05765625 147.859375 21.5078125 C152.82334499 18.01129349 155.99346459 17.61248159 162 18 C164.76223278 20.76223278 164.57856291 23.20706617 165 27 C165.65355469 26.40251953 165.65355469 26.40251953 166.3203125 25.79296875 C171.20584934 21.44674442 175.46236846 17.89540943 182.25 17.6875 C186 18 186 18 188 20 C188.91041184 25.72258869 187.81282244 31.24389298 186.5 36.8125 C185.08306243 42.85103766 184.76835883 48.36564912 184.9921875 54.55078125 C184.99476563 55.35902344 184.99734375 56.16726562 185 57 C183.34346314 58.65653686 181.39349204 58.17106165 179.125 58.1875 C178.24070312 58.20167969 177.35640625 58.21585938 176.4453125 58.23046875 C174 58 174 58 171 56 C168.51916401 48.55749204 170.27195104 39.68351673 171 32 C170.01 32 169.02 32 168 32 C163.59964147 39.68940202 160.07790761 45.85115017 160.8515625 54.98828125 C160.90054688 55.65214844 160.94953125 56.31601563 161 57 C159.34346314 58.65653686 157.39349204 58.17106165 155.125 58.1875 C154.24070312 58.20167969 153.35640625 58.21585938 152.4453125 58.23046875 C150 58 150 58 147 56 C144.33063348 47.99190044 146.59921438 39.09203838 148 31 C147.01 31 146.02 31 145 31 C139.22063925 38.44111079 136.7069858 45.60754348 137.02734375 54.92578125 C137 57 137 57 136 58 C134.39951798 58.12535652 132.79284072 58.17574787 131.1875 58.1875 C130.31480469 58.20167969 129.44210937 58.21585938 128.54296875 58.23046875 C125.89080915 57.99010406 124.27535001 57.34187309 122 56 C121.67 56.66 121.34 57.32 121 58 C119.23050905 58.10815225 117.45912513 58.18566083 115.6875 58.25 C114.70136719 58.29640625 113.71523437 58.3428125 112.69921875 58.390625 C110 58 110 58 108.1875 56.1875 C106.72081733 53.48571614 106.34507975 51.0367018 106 48 C105.41992188 48.83144531 105.41992188 48.83144531 104.828125 49.6796875 C104.30734375 50.40414062 103.7865625 51.12859375 103.25 51.875 C102.73953125 52.59429687 102.2290625 53.31359375 101.703125 54.0546875 C98.76667923 57.40870125 96.54326631 57.94742584 92.125 58.375 C87.72189745 58.2195001 85.27939273 57.05579777 82 54 C80.05935376 50.6068825 78 46.97607748 78 43 C77.34 43 76.68 43 76 43 C76.08378906 43.99902344 76.16757813 44.99804688 76.25390625 46.02734375 C76.40666016 47.96287109 76.40666016 47.96287109 76.5625 49.9375 C76.71912109 51.86916016 76.71912109 51.86916016 76.87890625 53.83984375 C76.93884766 55.40412109 76.93884766 55.40412109 77 57 C75.26250893 58.73749107 72.98951518 58.294321 70.625 58.375 C67.609375 58.3515625 67.609375 58.3515625 65 58 C62.37596059 55.22160533 61.88137799 52.61828858 61 49 C60.51789063 49.56589844 60.03578125 50.13179687 59.5390625 50.71484375 C58.59160156 51.81505859 58.59160156 51.81505859 57.625 52.9375 C56.99851562 53.66839844 56.37203125 54.39929688 55.7265625 55.15234375 C53.77435562 57.24147012 52.78828973 57.93568034 49.94140625 58.16796875 C49.15636719 58.17441406 48.37132812 58.18085938 47.5625 58.1875 C46.78003906 58.20167969 45.99757812 58.21585938 45.19140625 58.23046875 C43 58 43 58 40 56 C37.732367 56.29259781 36.20354514 56.87641902 34.25 58.0625 C30.78523707 59.50615122 27.63430291 59.73640659 24 59 C16.94781901 55.51087062 13.83624751 47.93997559 11 41 C11 40.34 11 39.68 11 39 C9.68 39 8.36 39 7 39 C6.93941406 40.28777344 6.87882813 41.57554687 6.81640625 42.90234375 C6.73201753 44.58074159 6.6473687 46.25912636 6.5625 47.9375 C6.52318359 48.78763672 6.48386719 49.63777344 6.44335938 50.51367188 C6.40146484 51.32255859 6.35957031 52.13144531 6.31640625 52.96484375 C6.26141968 54.08814087 6.26141968 54.08814087 6.20532227 55.23413086 C6 57 6 57 5 58 C2.8203125 58.203125 2.8203125 58.203125 0.125 58.25 C-0.75929687 58.27578125 -1.64359375 58.3015625 -2.5546875 58.328125 C-5 58 -5 58 -6.62988281 56.81445312 C-9.52772492 52.97682616 -8.3821949 47.56269787 -8 43 C-7.25438437 38.52630621 -6.21415639 34.15113892 -5.125 29.75 C-2.78771691 19.84207047 -0.90096391 10.14361086 0 0 Z M126 24 C125.649375 25.2375 125.29875 26.475 124.9375 27.75 C124.74027344 28.44609375 124.54304687 29.1421875 124.33984375 29.859375 C123.96513841 32.21958796 124.27346676 33.74419051 125 36 C126.29243536 31.8803623 127.26252625 28.33168317 127 24 C126.67 24 126.34 24 126 24 Z M51.33203125 28.3203125 C48.31993258 32.11856009 46.71521694 36.50711637 47.26953125 41.359375 C47.83406363 43.79358215 47.83406363 43.79358215 49 47 C51.69033564 48.11812009 51.69033564 48.11812009 55 48 C60.03870534 44.28271984 63.2940939 37.91166202 65 32 C65.05207123 28.60976592 65.05207123 28.60976592 64 26 C59.17273002 23.58636501 55.20475366 24.70304671 51.33203125 28.3203125 Z M95 29 C92.62351547 33.48573384 91.32049955 37.90374663 92 43 C93.02877392 45.91080119 93.02877392 45.91080119 95 48 C97.41078227 48.91765886 97.41078227 48.91765886 100 48 C105.28625851 42.84267462 109.82424433 35.55749385 110 28 C109.12870693 25.96117905 109.12870693 25.96117905 107 25 C101.56420331 24.29535969 98.6945171 24.894981 95 29 Z M80 30 C81 32 81 32 81 32 Z M123 36 C122.46585888 37.89212702 121.94821671 39.78891636 121.4375 41.6875 C121.14746094 42.74324219 120.85742188 43.79898438 120.55859375 44.88671875 C119.99875233 48.00695382 120.15309236 49.97693234 121 53 C121.33 53 121.66 53 122 53 C123.72427085 44.57203517 123.72427085 44.57203517 124 36 C123.67 36 123.34 36 123 36 Z " fill="#EEEAEB" transform="translate(139,169)"/>
<path d="M0 0 C1.6266848 0.28211877 3.25132896 0.57602375 4.875 0.875 C5.77992188 1.03742188 6.68484375 1.19984375 7.6171875 1.3671875 C10 2 10 2 12 4 C12.17280395 6.82929861 12.23210076 9.54871997 12.1875 12.375 C12.18685547 13.14328125 12.18621094 13.9115625 12.18554688 14.703125 C12.15735405 18.32433699 11.98182002 21.49482908 11 25 C15.85654589 24.2861202 17.94934013 21.27200425 21.02734375 17.69921875 C24.12192645 13.46484915 26.10699526 8.86902662 28 4 C32.8607826 6.03571237 34.77237645 9.3707198 37 14 C37.75 17 37.75 17 37 20 C32.94008763 26.23441652 27.29786053 30.2298522 21 34 C23.71059415 41.27580535 27.7734668 45.3301001 34 50 C34.33 50 34.66 50 35 50 C34.7525 48.9790625 34.7525 48.9790625 34.5 47.9375 C33.19156769 40.2504602 34.36310491 33.87979322 38 27 C41.89971987 22.51692039 46.57793549 18.43859545 52.62109375 17.6640625 C60.29497074 17.5576287 60.29497074 17.5576287 64.1875 20 C64.785625 20.66 65.38375 21.32 66 22 C66.33 20.68 66.66 19.36 67 18 C68.43836751 18.11458693 69.87570966 18.24209116 71.3125 18.375 C72.11300781 18.44460937 72.91351563 18.51421875 73.73828125 18.5859375 C76 19 76 19 79 21 C79.78545813 26.41374903 79.40101289 32.03098376 78 37.3125 C76.55184557 42.79118216 76.89920982 48.32189116 77.02734375 53.9375 C77 57 77 57 76 58 C72.29193737 58.4227433 68.70164652 58.49872483 65 58 C62.37596059 55.22160533 61.88137799 52.61828858 61 49 C60.51789063 49.56589844 60.03578125 50.13179687 59.5390625 50.71484375 C58.59160156 51.81505859 58.59160156 51.81505859 57.625 52.9375 C56.99851562 53.66839844 56.37203125 54.39929688 55.7265625 55.15234375 C53.77435562 57.24147012 52.78828973 57.93568034 49.94140625 58.16796875 C49.15636719 58.17441406 48.37132812 58.18085938 47.5625 58.1875 C46.78003906 58.20167969 45.99757812 58.21585938 45.19140625 58.23046875 C43 58 43 58 40 56 C37.732367 56.29259781 36.20354514 56.87641902 34.25 58.0625 C30.78523707 59.50615122 27.63430291 59.73640659 24 59 C16.94781901 55.51087062 13.83624751 47.93997559 11 41 C11 40.34 11 39.68 11 39 C9.68 39 8.36 39 7 39 C6.93941406 40.28777344 6.87882813 41.57554687 6.81640625 42.90234375 C6.73201753 44.58074159 6.6473687 46.25912636 6.5625 47.9375 C6.52318359 48.78763672 6.48386719 49.63777344 6.44335938 50.51367188 C6.40146484 51.32255859 6.35957031 52.13144531 6.31640625 52.96484375 C6.26141968 54.08814087 6.26141968 54.08814087 6.20532227 55.23413086 C6 57 6 57 5 58 C2.8203125 58.203125 2.8203125 58.203125 0.125 58.25 C-0.75929687 58.27578125 -1.64359375 58.3015625 -2.5546875 58.328125 C-5 58 -5 58 -6.62988281 56.81445312 C-9.52772492 52.97682616 -8.3821949 47.56269787 -8 43 C-7.25438437 38.52630621 -6.21415639 34.15113892 -5.125 29.75 C-2.78771691 19.84207047 -0.90096391 10.14361086 0 0 Z M51.33203125 28.3203125 C48.31993258 32.11856009 46.71521694 36.50711637 47.26953125 41.359375 C47.83406363 43.79358215 47.83406363 43.79358215 49 47 C51.69033564 48.11812009 51.69033564 48.11812009 55 48 C60.03870534 44.28271984 63.2940939 37.91166202 65 32 C65.05207123 28.60976592 65.05207123 28.60976592 64 26 C59.17273002 23.58636501 55.20475366 24.70304671 51.33203125 28.3203125 Z " fill="#E9E4E5" transform="translate(139,169)"/>
<path d="M0 0 C0 0.66 0 1.32 0 2 C0.60328125 2.09796875 1.2065625 2.1959375 1.828125 2.296875 C10.15796151 3.85536054 10.15796151 3.85536054 13 8 C13.75 10.75 13.75 10.75 14 13 C14.42410156 12.61328125 14.84820312 12.2265625 15.28515625 11.828125 C25.36560592 2.87757189 25.36560592 2.87757189 32.25 2.5 C36 3 36 3 38.0625 4.4375 C40.59381279 11.35642163 37.08764629 20.42609713 35.37304688 27.33789062 C34.18638048 32.36709581 33.91366684 36.83727713 34 42 C32.34107528 43.65892472 30.39952582 43.24986813 28.125 43.3125 C26.79855469 43.36857422 26.79855469 43.36857422 25.4453125 43.42578125 C23 43 23 43 21.203125 41.29296875 C17.22798799 33.7169771 20.75198508 23.6673366 23 16 C22.34 16 21.68 16 21 16 C21.33 15.34 21.66 14.68 22 14 C16.85128719 15.90693067 14.08046212 20.17999827 11.390625 24.7109375 C9.80153593 28.46940098 9.44882053 31.8554918 9.3125 35.875 C9.27833984 36.56335938 9.24417969 37.25171875 9.20898438 37.9609375 C9.12735909 39.64008613 9.0619843 41.32001168 9 43 C5.22942453 43.11597653 1.45930607 43.18717396 -2.3125 43.25 C-3.38435547 43.28351563 -4.45621094 43.31703125 -5.56054688 43.3515625 C-6.58857422 43.36445313 -7.61660156 43.37734375 -8.67578125 43.390625 C-9.62364502 43.41157227 -10.57150879 43.43251953 -11.5480957 43.45410156 C-14 43 -14 43 -15.78051758 41.1340332 C-19.47393746 34.67073326 -17.24894053 28.36491045 -15.625 21.5625 C-15.15660006 19.54349037 -14.69039949 17.52396904 -14.2265625 15.50390625 C-14.0090332 14.55789551 -13.79150391 13.61188477 -13.56738281 12.63720703 C-12.877903 9.43249061 -12.39348243 6.25309314 -12 3 C-10.75336669 2.49166409 -9.50250613 1.99368855 -8.25 1.5 C-7.55390625 1.2215625 -6.8578125 0.943125 -6.140625 0.65625 C-4 0 -4 0 0 0 Z " fill="#ECE7E8" transform="translate(366,184)"/>
<path d="M0 0 C3.1875 2 3.1875 2 5 4 C5.33 2.68 5.66 1.36 6 0 C10.62663614 0.11087799 14.11570755 0.49716704 18.1875 2.8125 C21.12271179 7.97442418 19.38394093 12.44446571 18 18 C17.72929687 19.13824219 17.45859375 20.27648437 17.1796875 21.44921875 C16.48269143 24.30825604 15.7563353 27.15617929 15 30 C15.33 29.34 15.66 28.68 16 28 C16.33 28 16.66 28 17 28 C17.24954005 29.43410368 17.47392642 30.87260072 17.6875 32.3125 C17.81511719 33.11300781 17.94273437 33.91351563 18.07421875 34.73828125 C18 37 18 37 16.86328125 38.765625 C14.3321106 40.44245923 12.51885703 40.4334424 9.5 40.4375 C8.5409375 40.45683594 7.581875 40.47617188 6.59375 40.49609375 C4 40 4 40 2.19921875 38.17578125 C0.71338888 35.47999221 0.3454202 33.03969772 0 30 C-0.38671875 30.55429688 -0.7734375 31.10859375 -1.171875 31.6796875 C-1.69265625 32.40414062 -2.2134375 33.12859375 -2.75 33.875 C-3.26046875 34.59429687 -3.7709375 35.31359375 -4.296875 36.0546875 C-7.23332077 39.40870125 -9.45673369 39.94742584 -13.875 40.375 C-18.27810255 40.2195001 -20.72060727 39.05579777 -24 36 C-25.94064624 32.6068825 -28 28.97607748 -28 25 C-28.66 24.67 -29.32 24.34 -30 24 C-29.690625 22.741875 -29.38125 21.48375 -29.0625 20.1875 C-27.85947548 14.82934823 -27.38848904 9.4695168 -27 4 C-26.67 4 -26.34 4 -26 4 C-25.34 5.98 -24.68 7.96 -24 10 C-23.56429687 9.52949219 -23.12859375 9.05898437 -22.6796875 8.57421875 C-15.85258737 1.43679588 -10.04499851 -1.45026574 0 0 Z M-11 11 C-13.37648453 15.48573384 -14.67950045 19.90374663 -14 25 C-12.97122608 27.91080119 -12.97122608 27.91080119 -11 30 C-8.58921773 30.91765886 -8.58921773 30.91765886 -6 30 C-0.71374149 24.84267462 3.82424433 17.55749385 4 10 C3.12870693 7.96117905 3.12870693 7.96117905 1 7 C-4.43579669 6.29535969 -7.3054829 6.894981 -11 11 Z M-26 12 C-25 14 -25 14 -25 14 Z " fill="#EAE6E7" transform="translate(245,187)"/>
<path d="M0 0 C2.39967343 2.39967343 2.29618607 2.96546206 2.3125 6.25 C2.24336974 10.61777522 1.50114943 14.56591829 0.5 18.8125 C-0.91693757 24.85103766 -1.23164117 30.36564912 -1.0078125 36.55078125 C-1.00394531 37.76314453 -1.00394531 37.76314453 -1 39 C-2.65653686 40.65653686 -4.60650796 40.17106165 -6.875 40.1875 C-7.75929688 40.20167969 -8.64359375 40.21585938 -9.5546875 40.23046875 C-12 40 -12 40 -15 38 C-17.48083599 30.55749204 -15.72804896 21.68351673 -15 14 C-18.00259517 13.66781808 -18.00259517 13.66781808 -19.6875 15.5 C-20.3371875 16.2425 -20.3371875 16.2425 -21 17 C-21 16.34 -21 15.68 -21 15 C-21.66 14.67 -22.32 14.34 -23 14 C-23 10.04 -23 6.08 -23 2 C-22.67 2 -22.34 2 -22 2 C-21.67 4.31 -21.34 6.62 -21 9 C-20.56429688 8.60167969 -20.12859375 8.20335937 -19.6796875 7.79296875 C-13.35145256 2.1633052 -8.61200022 -0.71766668 0 0 Z " fill="#EBE7E8" transform="translate(325,187)"/>
<path d="M0 0 C1.83261503 1.83261503 1.34481564 4.7781349 1.5 7.25 C1.79294 11.99929511 1.79294 11.99929511 2.65234375 16.6640625 C3.08175578 19.54932536 2.47928837 20.61580578 1.0625 23.125 C-1.23646646 27.80166465 -1.30739688 31.66687152 -1.04296875 36.8125 C-1.02878906 37.534375 -1.01460938 38.25625 -1 39 C-2.65653686 40.65653686 -4.60650796 40.17106165 -6.875 40.1875 C-7.75929688 40.20167969 -8.64359375 40.21585938 -9.5546875 40.23046875 C-12 40 -12 40 -15 38 C-17.50857804 30.47426588 -15.55776564 23.26791542 -13.65625 15.8203125 C-12.88668373 12.99561925 -12.88668373 12.99561925 -13 10 C-14.32 9.67 -15.64 9.34 -17 9 C-16.62152066 6.50523477 -16.291148 5.27590085 -14.43359375 3.515625 C-9.33856628 0.28511835 -6.02920757 -0.63465343 0 0 Z " fill="#EEEAEB" transform="translate(301,187)"/>
<path d="M0 0 C1.258125 -0.04125 2.51625 -0.0825 3.8125 -0.125 C4.52019531 -0.14820313 5.22789062 -0.17140625 5.95703125 -0.1953125 C8 0 8 0 11 2 C11.78545813 7.41374903 11.40101289 13.03098376 10 18.3125 C8.55184557 23.79118216 8.89920982 29.32189116 9.02734375 34.9375 C9 38 9 38 8 39 C6.19072719 39.12487758 4.37603893 39.17570846 2.5625 39.1875 C1.57378906 39.20167969 0.58507812 39.21585938 -0.43359375 39.23046875 C-3 39 -3 39 -5 37 C-5.484375 34.06640625 -5.484375 34.06640625 -5.75 30.5625 C-5.89695313 28.83193359 -5.89695313 28.83193359 -6.046875 27.06640625 C-6 24 -6 24 -4 21 C-4.2784375 19.7934375 -4.2784375 19.7934375 -4.5625 18.5625 C-4.706875 17.716875 -4.85125 16.87125 -5 16 C-4.03542166 14.64082143 -3.03145371 13.30915279 -2 12 C-1.32198966 9.09926819 -1.32198966 9.09926819 -1 6 C-0.66666667 4 -0.33333333 2 0 0 Z " fill="#F3EFEE" transform="translate(207,188)"/>
<path d="M0 0 C2.3731254 1.5820836 2.89120723 2.72439165 3.9375 5.375 C4 8 4 8 2.3125 10.75 C-0.93223284 13.90703736 -0.93223284 13.90703736 -4 14 C-6.9361705 13.21224694 -8.65142579 12.32533593 -10.875 10.25 C-12.45996822 7.08006357 -12.06419137 5.3344663 -11 2 C-7.73738634 -1.89003936 -4.6433228 -1.18193671 0 0 Z " fill="#DCD6D9" transform="translate(341,214)"/>
<path d="M0 0 C0.66 0.66 1.32 1.32 2 2 C1.85919129 5.80183524 1.46070386 8.29122484 -0.625 11.5 C-3 13 -3 13 -6.5625 12.9375 C-11.47761194 11.59701493 -11.47761194 11.59701493 -13 9 C-13.43490509 5.59324344 -13.39345822 3.6932359 -11.6875 0.6875 C-7.86353018 -3.13646982 -4.64701059 -1.60533093 0 0 Z " fill="#D4CFD3" transform="translate(368,170)"/>
<path d="M0 0 C9.99562363 -0.63019694 9.99562363 -0.63019694 14.1875 2 C15.0846875 2.99 15.0846875 2.99 16 4 C16.33 2.68 16.66 1.36 17 0 C18.98 0 20.96 0 23 0 C23 0.33 23 0.66 23 1 C21.35 1 19.7 1 18 1 C18.020625 1.845625 18.04125 2.69125 18.0625 3.5625 C17.99704575 7.16248363 17.74571099 10.47482078 17 14 C16.01 14.66 15.02 15.32 14 16 C14 13.36 14 10.72 14 8 C7.73920552 7.56822107 4.90924297 8.07260562 0 12 C0.34828682 6.60155422 0.34828682 6.60155422 1 4 C2.9375 2.4375 2.9375 2.4375 5 2 C5.66 2.33 6.32 2.66 7 3 C7 2.34 7 1.68 7 1 C4.69 1 2.38 1 0 1 C0 0.67 0 0.34 0 0 Z " fill="#D4CED2" transform="translate(189,187)"/>
<path d="M0 0 C0.33 0 0.66 0 1 0 C1.33 2.31 1.66 4.62 2 7 C3.32 5.68 4.64 4.36 6 3 C6.99 3.33 7.98 3.66 9 4 C9 4.66 9 5.32 9 6 C9.99 6.33 10.98 6.66 12 7 C11.34 9.64 10.68 12.28 10 15 C8.68 13.68 7.36 12.36 6 11 C4.68 12.32 3.36 13.64 2 15 C2 14.34 2 13.68 2 13 C1.34 12.67 0.68 12.34 0 12 C0 8.04 0 4.08 0 0 Z " fill="#9F99A1" transform="translate(302,189)"/>
<path d="M0 0 C0.33 0.99 0.66 1.98 1 3 C1.66 3 2.32 3 3 3 C3.36923077 9.4 3.36923077 9.4 1.5 12.4375 C1.005 12.953125 0.51 13.46875 0 14 C-3.875 11.375 -3.875 11.375 -5 8 C-5.03954234 5.66700175 -5.04401732 3.33291811 -5 1 C-3.68 1.33 -2.36 1.66 -1 2 C-0.67 1.34 -0.34 0.68 0 0 Z M3 2 C3.66 2 4.32 2 5 2 C4.67 2.66 4.34 3.32 4 4 C3.67 3.34 3.34 2.68 3 2 Z " fill="#F1EDED" transform="translate(277,196)"/>
<path d="M0 0 C10.74054762 -0.86000826 10.74054762 -0.86000826 14.6875 2.25 C17 5 17 5 17 9 C16.01 9.33 15.02 9.66 14 10 C13.34 9.34 12.68 8.68 12 8 C10.01178687 7.60235737 8.01055661 7.26224651 6 7 C6.66 6.67 7.32 6.34 8 6 C7.67 5.01 7.34 4.02 7 3 C7.33 2.67 7.66 2.34 8 2 C5.36 1.67 2.72 1.34 0 1 C0 0.67 0 0.34 0 0 Z " fill="#CCC5CD" transform="translate(234,187)"/>
<path d="M0 0 C0.268125 0.61875 0.53625 1.2375 0.8125 1.875 C1.95556848 4.2995233 1.95556848 4.2995233 5 6 C3.3125 8.0625 3.3125 8.0625 1 10 C-1.75 9.75 -1.75 9.75 -4 9 C-4.125 3.25 -4.125 3.25 -3 1 C-2.01 0.67 -1.02 0.34 0 0 Z " fill="#E1DCE1" transform="translate(359,170)"/>
<path d="M0 0 C1.66666667 0 3.33333333 0 5 0 C5 0.66 5 1.32 5 2 C6.65 2.33 8.3 2.66 10 3 C9.67 5.31 9.34 7.62 9 10 C8.67 8.68 8.34 7.36 8 6 C4.87501834 5.6626154 4.87501834 5.6626154 2.8125 8 C2.214375 8.66 1.61625 9.32 1 10 C1 8.35 1 6.7 1 5 C1.66 4.67 2.32 4.34 3 4 C2.01 4 1.02 4 0 4 C0 2.68 0 1.36 0 0 Z " fill="#7E7981" transform="translate(279,194)"/>
<path d="M0 0 C2.05078125 0.03255208 4.1015625 0.06510417 6.15234375 0.09765625 C5.96484375 2.47265625 5.96484375 2.47265625 5.15234375 5.09765625 C2.46744348 6.69408344 0.93799446 7.22505907 -2.16015625 6.72265625 C-2.71703125 6.51640625 -3.27390625 6.31015625 -3.84765625 6.09765625 C-2.77957394 0.14691194 -2.77957394 0.14691194 0 0 Z " fill="#F5F0F0" transform="translate(236.84765625,187.90234375)"/>
<path d="M0 0 C4.5 2.25 4.5 2.25 6 6 C5.01 7.32 4.02 8.64 3 10 C0.03 9.505 0.03 9.505 -3 9 C-2.01 6.03 -1.02 3.06 0 0 Z " fill="#D8D3D8" transform="translate(167,173)"/>
<path d="M0 0 C0.33 0 0.66 0 1 0 C2.12298921 8.46561098 1.80542989 16.51200811 1 25 C0.71125 24.360625 0.4225 23.72125 0.125 23.0625 C-0.82823451 20.84793921 -0.82823451 20.84793921 -3 20 C-2.690625 18.741875 -2.38125 17.48375 -2.0625 16.1875 C-0.85947548 10.82934823 -0.38848904 5.4695168 0 0 Z " fill="#322E37" transform="translate(218,191)"/>
<path d="M0 0 C0.99 1.32 1.98 2.64 3 4 C2.01 5.485 2.01 5.485 1 7 C0.75892674 9.28648848 0.75892674 9.28648848 0.875 11.6875 C0.89304688 12.49574219 0.91109375 13.30398437 0.9296875 14.13671875 C0.95289063 14.75160156 0.97609375 15.36648437 1 16 C0.34 14.68 -0.32 13.36 -1 12 C-1.99 12.495 -1.99 12.495 -3 13 C-4.3125 11 -4.3125 11 -5 8 C-3.65415238 5.09918899 -1.89777463 2.56645361 0 0 Z " fill="#B9B4B8" transform="translate(201,206)"/>
<path d="M0 0 C-0.3125 2.375 -0.3125 2.375 -1 5 C-1.99 5.66 -2.98 6.32 -4 7 C-4.66 7.66 -5.32 8.32 -6 9 C-7.64991582 9.70710678 -9.31562256 10.37943989 -11 11 C-9.7672897 6.34309441 -5.30909278 0 0 0 Z " fill="#D7D1D7" transform="translate(187,189)"/>
<path d="M0 0 C0 0.66 0 1.32 0 2 C0.66 2.33 1.32 2.66 2 3 C1.67 4.65 1.34 6.3 1 8 C0.46375 7.54625 -0.0725 7.0925 -0.625 6.625 C-3.31698302 4.78311688 -5.88520388 3.92028067 -9 3 C-8 1 -8 1 -6.1875 0.375 C-4 0 -4 0 0 0 Z " fill="#121017" transform="translate(366,184)"/>
<path d="M0 0 C0.33 0.66 0.66 1.32 1 2 C1.99 2 2.98 2 4 2 C4 5.3 4 8.6 4 12 C2 9 2 9 2 6 C1.34 6.66 0.68 7.32 0 8 C0 7.01 0 6.02 0 5 C-1.32 5.33 -2.64 5.66 -4 6 C-2.68 4.02 -1.36 2.04 0 0 Z " fill="#ABA4AC" transform="translate(243,211)"/>
<path d="M0 0 C-0.4793247 4.31392226 -1.7457985 6.16569547 -5 9 C-5.185625 7.576875 -5.185625 7.576875 -5.375 6.125 C-5.71687177 2.91332809 -5.71687177 2.91332809 -8 1 C-2.25 0 -2.25 0 0 0 Z " fill="#D2CDD2" transform="translate(243,216)"/>
<path d="M0 0 C1.98 0 3.96 0 6 0 C6 0.33 6 0.66 6 1 C4.35 1 2.7 1 1 1 C1.0309375 2.2684375 1.0309375 2.2684375 1.0625 3.5625 C0.99704575 7.16248363 0.74571099 10.47482078 0 14 C-0.99 14.66 -1.98 15.32 -3 16 C-3 13.36 -3 10.72 -3 8 C-3.66 7.67 -4.32 7.34 -5 7 C-4.0409375 6.6596875 -4.0409375 6.6596875 -3.0625 6.3125 C-0.72806339 5.14749104 -0.72806339 5.14749104 -0.25 2.375 C-0.1675 1.59125 -0.085 0.8075 0 0 Z " fill="#ACA6AE" transform="translate(206,187)"/>
<path d="M0 0 C2.97 0 5.94 0 9 0 C9 0.66 9 1.32 9 2 C8.21625 2.0825 7.4325 2.165 6.625 2.25 C3.85250896 2.72806339 3.85250896 2.72806339 2.6875 5.0625 C2.3471875 6.0215625 2.3471875 6.0215625 2 7 C1.01 6.67 0.02 6.34 -1 6 C-0.67 4.02 -0.34 2.04 0 0 Z " fill="#F6F2F2" transform="translate(187,188)"/>
<path d="M0 0 C0.33 0 0.66 0 1 0 C1.33 2.31 1.66 4.62 2 7 C3.32 5.68 4.64 4.36 6 3 C6.99 3.33 7.98 3.66 9 4 C6.03839944 7.12613393 3.90432869 9.04783565 0 11 C0 7.37 0 3.74 0 0 Z " fill="#928D94" transform="translate(302,189)"/>
<path d="M0 0 C0.99 0.33 1.98 0.66 3 1 C2.67 2.98 2.34 4.96 2 7 C1.01 7 0.02 7 -1 7 C-1 3 -1 3 0 0 Z " fill="#D9D3DA" transform="translate(195,215)"/>
<path d="M0 0 C0.66 0.33 1.32 0.66 2 1 C1.67 2.65 1.34 4.3 1 6 C-0.32 6 -1.64 6 -3 6 C-3 4.35 -3 2.7 -3 1 C-2.01 0.67 -1.02 0.34 0 0 Z " fill="#F6F1F2" transform="translate(333,218)"/>
<path d="M0 0 C0.33 1.32 0.66 2.64 1 4 C-0.65 4.66 -2.3 5.32 -4 6 C-4 5.34 -4 4.68 -4 4 C-4.66 3.67 -5.32 3.34 -6 3 C-3.375 0 -3.375 0 0 0 Z " fill="#FDFAF9" transform="translate(157,203)"/>
<path d="M0 0 C0.33 0 0.66 0 1 0 C1.33 2.97 1.66 5.94 2 9 C0.68 9.33 -0.64 9.66 -2 10 C-2.17942163 6.05272412 -2.09350689 3.4019487 0 0 Z " fill="#242128" transform="translate(261,215)"/>
<path d="M0 0 C1.32 0.33 2.64 0.66 4 1 C4 1.99 4 2.98 4 4 C4.66 4.33 5.32 4.66 6 5 C5.34 5.66 4.68 6.32 4 7 C0 2.25 0 2.25 0 0 Z " fill="#FAF6F8" transform="translate(175,217)"/>
<path d="M0 0 C0.99 0.66 1.98 1.32 3 2 C3 3.32 3 4.64 3 6 C2.01 6.33 1.02 6.66 0 7 C-0.66 6.01 -1.32 5.02 -2 4 C-1.34 2.68 -0.68 1.36 0 0 Z " fill="#AAA3A8" transform="translate(248,190)"/>
<path d="M0 0 C2.05078125 0.03255208 4.1015625 0.06510417 6.15234375 0.09765625 C5.82234375 1.74765625 5.49234375 3.39765625 5.15234375 5.09765625 C4.57484375 4.62328125 3.99734375 4.14890625 3.40234375 3.66015625 C1.22652291 2.14916955 -0.27368073 1.55729474 -2.84765625 1.09765625 C-1.84765625 0.09765625 -1.84765625 0.09765625 0 0 Z " fill="#FDF8FA" transform="translate(236.84765625,187.90234375)"/>
<path d="M0 0 C1.32 0.33 2.64 0.66 4 1 C2.1875 3 2.1875 3 0 5 C-0.99 5 -1.98 5 -3 5 C-2.67 4.01 -2.34 3.02 -2 2 C-1.34 2 -0.68 2 0 2 C0 1.34 0 0.68 0 0 Z " fill="#FCF8F4" transform="translate(360,175)"/>
<path d="M0 0 C0.33 0 0.66 0 1 0 C1.33 3.3 1.66 6.6 2 10 C0.68 10.33 -0.64 10.66 -2 11 C-1.34 7.37 -0.68 3.74 0 0 Z " fill="#ABA4B1" transform="translate(274,216)"/>
<path d="" fill="#000000" transform="translate(0,0)"/>
</svg>
